<!DOCTYPE svg PUBLIC "-//W3C//DTD SVG 1.1//EN" "http://www.w3.org/Graphics/SVG/1.1/DTD/svg11.dtd">
<svg xmlns="http://www.w3.org/2000/svg" xmlns:xlink="http://www.w3.org/1999/xlink" width="641px" height="523px" version="1.1"><defs><clipPath id="mx-clip-274-105-81-53-0"><rect x="274" y="105" width="81" height="53"/></clipPath><clipPath id="mx-clip-244-105-21-53-0"><rect x="244" y="105" width="21" height="53"/></clipPath><clipPath id="mx-clip-274-164-81-79-0"><rect x="274" y="164" width="81" height="79"/></clipPath><clipPath id="mx-clip-274-386-81-29-0"><rect x="274" y="386" width="81" height="29"/></clipPath><clipPath id="mx-clip-244-386-21-29-0"><rect x="244" y="386" width="21" height="29"/></clipPath><clipPath id="mx-clip-274-421-81-103-0"><rect x="274" y="421" width="81" height="103"/></clipPath><clipPath id="mx-clip-34-26-81-29-0"><rect x="34" y="26" width="81" height="29"/></clipPath><clipPath id="mx-clip-4-26-21-29-0"><rect x="4" y="26" width="21" height="29"/></clipPath><clipPath id="mx-clip-34-61-81-113-0"><rect x="34" y="61" width="81" height="113"/></clipPath><clipPath id="mx-clip-540-265-95-93-0"><rect x="540" y="265" width="95" height="93"/></clipPath><clipPath id="mx-clip-484-265-47-93-0"><rect x="484" y="265" width="47" height="93"/></clipPath></defs><g transform="translate(0.5,0.5)"><rect x="240" y="79" width="120" height="160" fill="#ffffff" stroke="#000000" pointer-events="none"/><path d="M 240 105 L 240 79 L 360 79 L 360 105 Z" fill="#e0e0e0" stroke="#000000" stroke-miterlimit="10" pointer-events="none"/><g fill="#000000" font-family="Helvetica" text-anchor="middle" font-size="14px"><text x="298.83" y="96.5">passenger</text></g><path d="M 240 105 M 360 105 M 360 159 L 240 159" fill="none" stroke="#000000" stroke-miterlimit="10" pointer-events="none"/><g fill="#000000" font-family="Helvetica" font-weight="bold" text-decoration="underline" clip-path="url(#mx-clip-274-105-81-53-0)" font-size="12px"><text x="275.5" y="120.83">id</text><text x="275.5" y="148.83">staff_id</text></g><path d="M 240 105 M 270 105 L 270 159 M 240 159" fill="none" stroke="#000000" stroke-miterlimit="10" pointer-events="none"/><g fill="#000000" font-family="Helvetica" font-weight="bold" clip-path="url(#mx-clip-244-105-21-53-0)" font-size="12px"><text x="245.5" y="120.83">PK</text><text x="245.5" y="148.83">FK</text></g><path d="M 240 159 M 360 159 M 360 239 M 240 239" fill="none" stroke="#000000" stroke-miterlimit="10" pointer-events="none"/><g fill="#000000" font-family="Helvetica" clip-path="url(#mx-clip-274-164-81-79-0)" font-size="12px"><text x="275.5" y="176.5">firstname</text><text x="275.5" y="204.5">surname</text><text x="275.5" y="232.5">dob</text></g><path d="M 240 159 M 270 159 L 270 239 M 240 239" fill="none" stroke="#000000" stroke-miterlimit="10" pointer-events="none"/><path d="M 360 440 L 380 440 Q 390 440 395.26 431.49 L 447.41 347.17 Q 452.67 338.67 462.67 338.67 L 482.67 338.67" fill="none" stroke="#000000" stroke-miterlimit="10" pointer-events="none"/><path d="M 366 434 L 366 446 M 372 434 L 372 446" fill="none" stroke="#000000" stroke-miterlimit="10" pointer-events="none"/><path d="M 470.67 344.67 L 470.67 332.67 M 482.67 332.67 L 470.67 338.67 L 482.67 344.67" fill="none" stroke="#000000" stroke-miterlimit="10" pointer-events="none"/><rect x="240" y="360" width="120" height="160" fill="#ffffff" stroke="#000000" pointer-events="none"/><path d="M 240 386 L 240 360 L 360 360 L 360 386 Z" fill="#e0e0e0" stroke="#000000" stroke-miterlimit="10" pointer-events="none"/><g fill="#000000" font-family="Helvetica" text-anchor="middle" font-size="14px"><text x="298.83" y="377.5">flights</text></g><path d="M 240 386 M 360 386 M 360 416 L 240 416" fill="none" stroke="#000000" stroke-miterlimit="10" pointer-events="none"/><g fill="#000000" font-family="Helvetica" font-weight="bold" text-decoration="underline" clip-path="url(#mx-clip-274-386-81-29-0)" font-size="12px"><text x="275.5" y="403.83">id</text></g><path d="M 240 386 M 270 386 L 270 416 M 240 416" fill="none" stroke="#000000" stroke-miterlimit="10" pointer-events="none"/><g fill="#000000" font-family="Helvetica" font-weight="bold" clip-path="url(#mx-clip-244-386-21-29-0)" font-size="12px"><text x="245.5" y="403.83">PK</text></g><path d="M 240 416 M 360 416 M 360 520 M 240 520" fill="none" stroke="#000000" stroke-miterlimit="10" pointer-events="none"/><g fill="#000000" font-family="Helvetica" clip-path="url(#mx-clip-274-421-81-103-0)" font-size="12px"><text x="275.5" y="433.5">destination</text><text x="275.5" y="461.5">departure</text><text x="275.5" y="489.5">arrival</text></g><path d="M 240 416 M 270 416 L 270 520 M 240 520" fill="none" stroke="#000000" stroke-miterlimit="10" pointer-events="none"/><rect x="0" y="0" width="120" height="170" fill="#ffffff" stroke="#000000" pointer-events="none"/><path d="M 0 26 L 0 0 L 120 0 L 120 26 Z" fill="#e0e0e0" stroke="#000000" stroke-miterlimit="10" pointer-events="none"/><g fill="#000000" font-family="Helvetica" text-anchor="middle" font-size="14px"><text x="58.83" y="17.5">staff</text></g><path d="M 0 26 M 120 26 M 120 56 L 0 56" fill="none" stroke="#000000" stroke-miterlimit="10" pointer-events="none"/><g fill="#000000" font-family="Helvetica" font-weight="bold" text-decoration="underline" clip-path="url(#mx-clip-34-26-81-29-0)" font-size="12px"><text x="35.5" y="43.83">id</text></g><path d="M 0 26 M 30 26 L 30 56 M 0 56" fill="none" stroke="#000000" stroke-miterlimit="10" pointer-events="none"/><g fill="#000000" font-family="Helvetica" clip-path="url(#mx-clip-4-26-21-29-0)" font-size="12px"><text x="5.5" y="43.83">PK</text></g><path d="M 0 56 M 120 56 M 120 170 M 0 170" fill="none" stroke="#000000" stroke-miterlimit="10" pointer-events="none"/><g fill="#000000" font-family="Helvetica" clip-path="url(#mx-clip-34-61-81-113-0)" font-size="12px"><text x="35.5" y="73.5">firstname</text><text x="35.5" y="101.5">secondname</text><text x="35.5" y="129.5">dob</text><text x="35.5" y="157.5">position</text></g><path d="M 0 56 M 30 56 L 30 170 M 0 170" fill="none" stroke="#000000" stroke-miterlimit="10" pointer-events="none"/><rect x="480" y="239" width="160" height="120" fill="#ffffff" stroke="#000000" pointer-events="none"/><path d="M 480 265 L 480 239 L 640 239 L 640 265 Z" fill="#e0e0e0" stroke="#000000" stroke-miterlimit="10" pointer-events="none"/><g fill="#000000" font-family="Helvetica" text-anchor="middle" font-size="14px"><text x="558.83" y="256.5">bookings</text></g><path d="M 480 265 M 640 265 M 640 359 M 480 359" fill="none" stroke="#000000" stroke-miterlimit="10" pointer-events="none"/><g fill="#000000" font-family="Helvetica" font-weight="bold" text-decoration="underline" clip-path="url(#mx-clip-540-265-95-93-0)" font-size="12px"><text x="541.5" y="286.83">id</text><text x="541.5" y="314.83">passenger_id</text><text x="541.5" y="342.83">flight_id</text></g><path d="M 480 265 M 536 265 L 536 359 M 480 359" fill="none" stroke="#000000" stroke-miterlimit="10" pointer-events="none"/><g fill="#000000" font-family="Helvetica" font-weight="bold" clip-path="url(#mx-clip-484-265-47-93-0)" font-size="12px"><text x="485.5" y="286.83">PK</text><text x="485.5" y="314.83">FK1</text><text x="485.5" y="342.83">FK2</text></g><path d="M 360 159 L 380 159 Q 390 159 394.44 167.96 L 448.22 276.37 Q 452.67 285.33 462.67 285.33 L 482.67 285.33" fill="none" stroke="#000000" stroke-miterlimit="10" pointer-events="none"/><path d="M 366 153 L 366 165 M 372 153 L 372 165" fill="none" stroke="#000000" stroke-miterlimit="10" pointer-events="none"/><path d="M 470.67 291.33 L 470.67 279.33 M 482.67 279.33 L 470.67 285.33 L 482.67 291.33" fill="none" stroke="#000000" stroke-miterlimit="10" pointer-events="none"/><path d="M 120 85 L 140 85 Q 150 85 156.3 92.77 L 203.7 151.23 Q 210 159 220 159 L 240 159" fill="none" stroke="#000000" stroke-miterlimit="10" pointer-events="none"/><ellipse cx="138" cy="85" rx="5" ry="5" fill="#ffffff" stroke="#000000" pointer-events="none"/><path d="M 126 79 L 126 91" fill="none" stroke="#000000" stroke-miterlimit="10" pointer-events="none"/><ellipse cx="222" cy="159" rx="5" ry="5" fill="#ffffff" stroke="#000000" pointer-events="none"/><path d="M 234 165 L 234 153" fill="none" stroke="#000000" stroke-miterlimit="10" pointer-events="none"/></g></svg>